<?xml version="1.0" encoding="UTF-8" standalone="no"?>
<!-- Created with Inkscape (http://www.inkscape.org/) -->
<svg
   xmlns:dc="http://purl.org/dc/elements/1.1/"
   xmlns:cc="http://creativecommons.org/ns#"
   xmlns:rdf="http://www.w3.org/1999/02/22-rdf-syntax-ns#"
   xmlns:svg="http://www.w3.org/2000/svg"
   xmlns="http://www.w3.org/2000/svg"
   xmlns:xlink="http://www.w3.org/1999/xlink"
   xmlns:sodipodi="http://sodipodi.sourceforge.net/DTD/sodipodi-0.dtd"
   xmlns:inkscape="http://www.inkscape.org/namespaces/inkscape"
   width="48"
   height="48"
   id="svg2"
   sodipodi:version="0.32"
   inkscape:version="0.46"
   version="1.0"
   sodipodi:docname="filezilla.svg"
   inkscape:output_extension="org.inkscape.output.svg.inkscape">
  <defs
     id="defs4">
    <linearGradient
       inkscape:collect="always"
       id="linearGradient6427">
      <stop
         style="stop-color:#eeeeec;stop-opacity:1;"
         offset="0"
         id="stop6429" />
      <stop
         style="stop-color:#eeeeec;stop-opacity:0;"
         offset="1"
         id="stop6431" />
    </linearGradient>
    <linearGradient
       id="linearGradient6417">
      <stop
         style="stop-color:#eeeeef;stop-opacity:0.94117647;"
         offset="0"
         id="stop6419" />
      <stop
         style="stop-color:#000000;stop-opacity:0;"
         offset="1"
         id="stop6421" />
    </linearGradient>
    <linearGradient
       inkscape:collect="always"
       id="linearGradient6405">
      <stop
         style="stop-color:#eeeeec;stop-opacity:1;"
         offset="0"
         id="stop6407" />
      <stop
         style="stop-color:#eeeeec;stop-opacity:0;"
         offset="1"
         id="stop6409" />
    </linearGradient>
    <inkscape:perspective
       sodipodi:type="inkscape:persp3d"
       inkscape:vp_x="0 : 526.18109 : 1"
       inkscape:vp_y="0 : 1000 : 0"
       inkscape:vp_z="744.09448 : 526.18109 : 1"
       inkscape:persp3d-origin="372.04724 : 350.78739 : 1"
       id="perspective10" />
    <linearGradient
       inkscape:collect="always"
       xlink:href="#linearGradient6405"
       id="linearGradient6411"
       x1="18.234285"
       y1="18.98509"
       x2="45.400764"
       y2="61.122494"
       gradientUnits="userSpaceOnUse" />
    <linearGradient
       inkscape:collect="always"
       xlink:href="#linearGradient6417"
       id="linearGradient6423"
       x1="8.0366412"
       y1="16.806863"
       x2="39.975573"
       y2="16.806863"
       gradientUnits="userSpaceOnUse" />
    <linearGradient
       inkscape:collect="always"
       xlink:href="#linearGradient6427"
       id="linearGradient6433"
       x1="24.006107"
       y1="8.0122137"
       x2="31.990841"
       y2="44.309925"
       gradientUnits="userSpaceOnUse" />
  </defs>
  <sodipodi:namedview
     id="base"
     pagecolor="#ffffff"
     bordercolor="#666666"
     borderopacity="1.0"
     gridtolerance="10000"
     guidetolerance="10"
     objecttolerance="10"
     inkscape:pageopacity="0.0"
     inkscape:pageshadow="2"
     inkscape:zoom="1"
     inkscape:cx="24"
     inkscape:cy="24"
     inkscape:document-units="px"
     inkscape:current-layer="layer1"
     showgrid="false"
     inkscape:showpageshadow="false"
     inkscape:window-width="1022"
     inkscape:window-height="971"
     inkscape:window-x="1280"
     inkscape:window-y="24" />
  <metadata
     id="metadata7">
    <rdf:RDF>
      <cc:Work
         rdf:about="">
        <dc:format>image/svg+xml</dc:format>
        <dc:type
           rdf:resource="http://purl.org/dc/dcmitype/StillImage" />
      </cc:Work>
    </rdf:RDF>
  </metadata>
  <g
     inkscape:label="Layer 1"
     inkscape:groupmode="layer"
     id="layer1">
    <g
       id="g5979">
      <path
         id="rect5480"
         d="M 8.46875 6.5 C 8.4687499 7.593447 7.589452 8.4830966 6.5 8.5 L 6.5 11.375 C 6.5105143 11.374837 6.5206971 11.375 6.53125 11.375 C 7.63525 11.375 8.5312502 12.270994 8.53125 13.375 C 8.53125 14.479006 7.6352502 15.375 6.53125 15.375 C 6.5206971 15.375 6.5105143 15.375163 6.5 15.375 L 6.5 18.375 C 6.5105143 18.374837 6.5206971 18.375 6.53125 18.375 C 7.63525 18.375 8.53125 19.270994 8.53125 20.375 C 8.53125 21.479006 7.63525 22.375 6.53125 22.375 C 6.5206971 22.375 6.5105143 22.375163 6.5 22.375 L 6.5 25.375 C 6.5105143 25.374837 6.5206971 25.375 6.53125 25.375 C 7.63525 25.375 8.5312495 26.270995 8.53125 27.375 C 8.53125 28.479006 7.63525 29.375 6.53125 29.375 C 6.5206971 29.375 6.5105143 29.375163 6.5 29.375 L 6.5 32.375 C 6.5105143 32.374837 6.5206971 32.375 6.53125 32.375 C 7.63525 32.375 8.5312504 33.270995 8.53125 34.375 C 8.53125 35.479006 7.6352499 36.375 6.53125 36.375 C 6.5206971 36.375 6.5105143 36.375163 6.5 36.375 L 6.5 39.5 C 7.5748521 39.533357 8.4375 40.417106 8.4375 41.5 L 11.4375 41.5 C 11.4375 40.396 12.333494 39.5 13.4375 39.5 C 14.541506 39.5 15.4375 40.396 15.4375 41.5 L 18.4375 41.5 C 18.4375 40.396 19.333494 39.5 20.4375 39.5 C 21.541505 39.5 22.4375 40.396 22.4375 41.5 L 25.4375 41.5 C 25.437499 40.396 26.333494 39.5 27.4375 39.5 C 28.541506 39.5 29.4375 40.396 29.4375 41.5 L 32.4375 41.5 C 32.4375 40.395999 33.333494 39.5 34.4375 39.5 C 35.541505 39.499999 36.4375 40.396 36.4375 41.5 L 39.4375 41.5 C 39.436043 41.468699 39.4375 41.437909 39.4375 41.40625 C 39.437498 40.302252 40.333494 39.40625 41.4375 39.40625 C 41.458606 39.40625 41.479051 39.4056 41.5 39.40625 L 41.5 36.375 C 41.468699 36.376457 41.437909 36.375 41.40625 36.375 C 40.30225 36.375 39.406251 35.479007 39.40625 34.375 C 39.40625 33.270994 40.302251 32.374999 41.40625 32.375 C 41.437909 32.375 41.468699 32.373543 41.5 32.375 L 41.5 29.375 C 41.4687 29.376457 41.437909 29.375 41.40625 29.375 C 40.30225 29.375 39.406252 28.479005 39.40625 27.375 C 39.40625 26.270994 40.302248 25.375001 41.40625 25.375 C 41.437909 25.375 41.468699 25.373543 41.5 25.375 L 41.5 22.375 C 41.477343 22.375761 41.460341 22.375 41.4375 22.375 C 40.3335 22.375 39.437501 21.479006 39.4375 20.375 C 39.4375 19.270994 40.333501 18.375 41.4375 18.375 C 41.460341 18.375 41.477343 18.374239 41.5 18.375 L 41.5 15.375 C 41.479051 15.37565 41.458606 15.375 41.4375 15.375 C 40.3335 15.375 39.437499 14.479005 39.4375 13.375 C 39.4375 12.270994 40.333499 11.375 41.4375 11.375 C 41.458606 11.375 41.479051 11.37435 41.5 11.375 L 41.5 8.40625 C 41.489486 8.4064131 41.479303 8.40625 41.46875 8.40625 C 40.396405 8.4062504 39.518115 7.5602044 39.46875 6.5 L 36.46875 6.5 C 36.468748 7.6039999 35.572756 8.5 34.46875 8.5 C 33.364744 8.4999999 32.46875 7.604 32.46875 6.5 L 29.46875 6.5 C 29.468749 7.6040001 28.572756 8.5 27.46875 8.5 C 26.364745 8.5000001 25.46875 7.604 25.46875 6.5 L 22.46875 6.5 C 22.46875 7.6040002 21.572756 8.5 20.46875 8.5 C 19.364744 8.4999998 18.46875 7.604 18.46875 6.5 L 15.46875 6.5 C 15.46875 7.6040002 14.572756 8.5 13.46875 8.5 C 12.364745 8.4999997 11.46875 7.604 11.46875 6.5 L 8.46875 6.5 z "
         style="opacity:1;fill:#a40000;fill-opacity:1;fill-rule:evenodd;stroke:#430000;stroke-width:1;stroke-linecap:round;stroke-linejoin:round;stroke-miterlimit:4;stroke-dasharray:none;stroke-dashoffset:0;stroke-opacity:1" />
      <path
         sodipodi:nodetypes="csccccccccccccccccccccscccccccccccccccccccc"
         id="path6364"
         d="M 9.2934402,7.5006549 C 9.1422799,7.9817079 8.8899062,8.3219228 8.5950011,8.6090592 C 8.2508418,8.9441524 7.9084303,9.1981385 7.4976719,9.3144141 L 7.4976719,10.538586 C 10.298794,11.466067 10.124258,15.366455 7.4976443,16.200262 L 7.4976443,17.540911 C 10.019981,18.294229 10.341573,22.213437 7.4976443,23.206107 L 7.4976443,24.546756 C 10.324588,25.531953 10.041732,29.437641 7.4976443,30.193464 L 7.5004586,31.523978 C 10.296107,32.537499 10.056719,36.426671 7.5004586,37.202171 L 7.5004586,38.687351 C 8.1985595,38.899378 9.0756149,39.789414 9.2672053,40.498837 L 10.618321,40.498837 C 11.862341,37.413673 15.709384,38.291104 16.244274,40.503816 L 17.603053,40.503816 C 18.682799,37.745304 22.309486,37.912397 23.274809,40.503816 L 24.610687,40.503816 C 25.824179,37.467669 29.569924,38.238283 30.259542,40.496183 L 31.618321,40.496183 C 32.563779,37.863591 36.194503,37.788256 37.259542,40.503816 L 38.580152,40.503816 C 38.715874,40.025243 38.961999,39.645185 39.251369,39.343352 C 39.59509,38.984827 40.009237,38.736673 40.503817,38.564885 L 40.503817,37.213741 C 38.133291,36.511149 37.312792,32.882947 40.503817,31.465649 L 40.503817,30.216245 C 38.172721,29.639686 37.281612,25.695691 40.503817,24.502743 L 40.503817,23.224594 C 38.288419,22.603001 37.226225,18.927783 40.501312,17.462786 L 40.501312,16.171875 C 37.627684,15.200395 37.888164,11.408191 40.501312,10.491054 L 40.501312,9.2242366 C 39.514075,8.9234647 38.925648,8.1896572 38.684876,7.4972567 L 37.312977,7.4972567 C 36.319079,10.099274 32.788912,10.268177 31.633588,7.4972567 L 30.309995,7.4972567 C 29.236247,10.128389 25.781107,10.251971 24.622406,7.4972567 L 23.314438,7.4972567 C 22.109219,10.424352 18.463147,9.9147219 17.634661,7.4972567 L 16.294012,7.4972567 C 15.485159,9.9476928 11.764567,10.386779 10.660602,7.5013763 L 9.2934402,7.5006549 z"
         style="fill:none;fill-rule:evenodd;stroke:url(#linearGradient6411);stroke-width:1px;stroke-linecap:butt;stroke-linejoin:miter;stroke-opacity:1;opacity:0.50000000000000000" />
      <path
         sodipodi:nodetypes="csscccssssscccsscccssscccssccccccccssssscccssscc"
         id="path6425"
         d="M 8.442036,23.309924 C 10.328482,22.160918 10.572906,19.339973 8.9201142,17.792325 C 8.7174754,17.602576 8.4361105,17.392366 8.2948605,17.325191 C 8.0421289,17.204997 8.0074967,17.198024 8.0068073,16.886864 L 8.0366412,16.570677 L 8.3920617,16.354767 C 9.4095444,15.736681 10.051908,14.561821 10.051908,13.318973 C 10.051908,12.167639 9.3963481,10.988492 8.4395017,10.418757 C 8.0508837,10.187362 8.0082082,10.172622 8.0071737,9.9308953 C 8.0061874,9.700306 8.0583652,9.6675035 8.3267176,9.4928971 C 8.722458,9.235404 9.3425466,8.6007267 9.5138284,8.2778571 C 9.6542449,8.013167 9.6559579,8.0122205 9.9907347,8.0140299 L 10.326718,8.0158461 L 10.540458,8.3889899 C 10.967191,9.1339701 11.840859,9.751007 12.739091,9.9417973 C 13.535293,10.110916 14.539621,9.9415798 15.266355,9.5156849 C 15.680061,9.273236 16.195829,8.7718266 16.44236,8.3724134 L 16.664686,8.0122137 L 16.97662,7.9988738 C 17.286115,8.0000763 17.289979,8.0170467 17.471756,8.3233704 C 18.190983,9.5353869 19.783261,10.233082 21.166412,9.942273 C 22.120942,9.7415823 23.090302,9.0565069 23.486937,8.3022901 C 23.638347,8.0143762 23.641795,8.0122137 23.949421,8.0122137 L 24.259357,8.0122137 L 24.556478,8.4470656 C 24.883862,8.9262082 25.407622,9.3968873 25.879504,9.6360079 C 26.277859,9.8378699 27.027358,10.027761 27.420456,10.026421 C 28.575924,10.022479 29.744809,9.3870455 30.390704,8.4117227 L 30.655271,8.0122137 L 30.968766,7.9816793 L 31.282258,8.0122137 L 31.579379,8.4470656 C 33.006534,10.53578 36.037333,10.517066 37.409444,8.4110675 L 37.669308,8.0122137 L 38.021139,8.0122137 C 38.358609,8.0122137 38.376238,8.0201075 38.453082,8.2056238 C 38.573227,8.4956837 39.208311,9.1427573 39.615798,9.3902919 C 39.964818,9.6023096 39.975573,9.6166663 39.975573,9.8705508 C 39.975573,10.123172 39.963383,10.139824 39.624427,10.350183 C 38.438806,11.085995 37.791968,12.44238 37.965753,13.82834 C 38.099141,14.892135 38.696269,15.795645 39.615744,16.324928 L 39.974247,16.531298 L 39.974131,16.836641 C 39.974021,17.141113 39.973044,17.142595 39.632629,17.355725 C 39.26971,17.582942 38.72345,18.108907 38.483236,18.46242 C 37.986197,19.193877 37.836111,20.313454 38.051249,21.227957 C 38.250695,22.075761 38.873554,22.957718 39.616427,23.380415 C 31.219944,28.329704 18.534634,26.270392 8.442036,23.309924 z"
         style="opacity:0.34999999999999998;fill:url(#linearGradient6433);fill-opacity:1;fill-rule:evenodd;stroke:none;stroke-width:1;stroke-linecap:round;stroke-linejoin:round;stroke-miterlimit:4;stroke-dasharray:none;stroke-dashoffset:0;stroke-opacity:1" />
      <path
         sodipodi:nodetypes="ccccccccccccccccccc"
         id="text6386"
         d="M 14.275882,13.540792 L 14.275882,29.782118 L 16.869632,29.782118 L 16.869632,22.406706 L 30.451216,22.329611 L 19.576216,32.531836 L 19.576216,34.459208 L 34.701216,34.459208 L 34.701216,32.403344 L 26.794966,32.403344 L 23.382991,32.409699 L 24.919966,30.912843 L 34.169966,22.072628 L 34.169966,20.505031 L 16.869632,20.505031 L 16.869632,15.468165 L 27.588382,15.468165 L 27.588382,13.540792 L 14.275882,13.540792 z"
         style="font-size:27.56841850000000000px;font-style:normal;font-weight:normal;fill:#babdb6;fill-opacity:1;stroke:#eeeeec;stroke-width:1px;stroke-linecap:butt;stroke-linejoin:round;stroke-opacity:1;font-family:Bitstream Vera Sans" />
    </g>
  </g>
</svg>
